<svg width="9676" height="8873" xmlns="http://www.w3.org/2000/svg" xmlns:xlink="http://www.w3.org/1999/xlink" overflow="hidden"><defs><clipPath id="clip0"><rect x="59" y="348" width="9676" height="8873"/></clipPath></defs><g clip-path="url(#clip0)" transform="translate(-59 -348)"><path d="M0 311C-7.90616e-14 139.239 139.016 0 310.5 0 481.984-7.91889e-14 621 139.239 621 311 621 482.761 481.984 622 310.5 622 139.016 622-1.18592e-13 482.761 0 311Z" fill="#000000" fill-rule="evenodd" fill-opacity="1" transform="matrix(-1 0 0 1 4254 7190)"/><path d="M0 82.6048C-2.74734e-14 36.9834 36.9838 0 82.6056 0 128.227-2.74731e-14 165.211 36.9834 165.211 82.6048L165.211 1643.73C165.211 1689.35 128.227 1726.33 82.6056 1726.33 36.9838 1726.33 0 1689.35 0 1643.73Z" fill="#000000" fill-rule="evenodd" fill-opacity="1" transform="matrix(-0.63305 -0.774111 -0.774111 0.63305 4162.78 7720.97)"/><path d="M0 138C-3.51385e-14 61.7847 61.7847 0 138 0 214.215-3.51385e-14 276 61.7847 276 138 276 214.215 214.215 276 138 276 61.7847 276-5.27077e-14 214.215 0 138Z" fill="#000000" fill-rule="evenodd" fill-opacity="1" transform="matrix(-1 0 0 1 2993 8593)"/><path d="M0 82.6054C-1.96356e-14 36.9837 36.9838-9.81776e-15 82.6056 0 128.227-1.96355e-14 165.211 36.9837 165.211 82.6054L165.211 534.314C165.211 579.935 128.227 616.919 82.6056 616.919 36.9838 616.919-9.81778e-15 579.935 0 534.314Z" fill="#000000" fill-rule="evenodd" fill-opacity="1" transform="matrix(-0.546812 -0.837255 -0.837255 0.546812 2924.36 8846.34)"/><path d="M0 82.6058C-1.18277e-14 36.9839 36.984 0 82.6061 0 128.228-1.18277e-14 165.212 36.9839 165.212 82.6058L165.211 660.613C165.211 706.235 128.227 743.219 82.6053 743.219L82.6061 743.218C36.984 743.218 0 706.234 0 660.612Z" fill="#000000" fill-rule="evenodd" fill-opacity="1" transform="matrix(-0.120115 -0.99276 -0.99276 0.120115 2817.96 8876.63)"/><path d="M0 82.6055C-9.53925e-15 36.9837 36.9838-1.90785e-14 82.6056-1.90785e-14L82.6056 0C128.227-9.53923e-15 165.211 36.9837 165.211 82.6055L165.211 516.812C165.211 562.434 128.227 599.418 82.6056 599.418 36.9838 599.418-9.53925e-15 562.434 0 516.812Z" fill="#000000" fill-rule="evenodd" fill-opacity="1" transform="matrix(0.100902 -0.994896 -0.994896 -0.100902 2806.62 8800.55)"/><path d="M0 96.332C-1.60181e-14 43.1293 43.1294 0 96.3321 0 149.535-1.60181e-14 192.664 43.1293 192.664 96.332L192.664 406.933C192.664 460.136 149.534 503.265 96.3316 503.265L96.3321 503.265C43.1294 503.265 0 460.136 0 406.933Z" fill="#000000" fill-rule="evenodd" fill-opacity="1" transform="matrix(0.0332816 -0.999446 -0.999446 -0.0332816 3315.21 8856.21)"/><path d="M0 1264.06C-5.03187e-13 565.937 884.763 0 1976.17 0 3067.59-3.21862e-13 3952.35 565.937 3952.35 1264.06 3952.35 1962.17 3067.59 2528.11 1976.17 2528.11 884.763 2528.11-7.5478e-13 1962.17 0 1264.06Z" fill="#FFFFFF" fill-rule="evenodd" fill-opacity="1" transform="matrix(-0.891504 -0.453013 -0.453013 0.891504 6126.54 5981.16)"/><text fill="#FFFFFF" fill-opacity="1" font-family="Malgun Gothic,Malgun Gothic_MSFontService,sans-serif" font-style="normal" font-variant="normal" font-weight="400" font-stretch="normal" font-size="293" text-anchor="start" direction="ltr" writing-mode="lr-tb" unicode-bidi="normal" text-decoration="none" transform="matrix(0.891504 0.453013 -0.453013 0.891504 2832.96 5061)">ㄹㅇㄹㅇㅇㄱㅎㄱㅎ<tspan fill="#FFFFFF" fill-opacity="1" font-family="Malgun Gothic,Malgun Gothic_MSFontService,sans-serif" font-style="normal" font-variant="normal" font-weight="400" font-stretch="normal" font-size="293" text-anchor="start" direction="ltr" writing-mode="lr-tb" unicode-bidi="normal" text-decoration="none" x="0.0863037" y="352.17">ㄹㄹㅇㅎㅇㅎㄹㅇㅎ</tspan><tspan fill="#FFFFFF" fill-opacity="1" font-family="Malgun Gothic,Malgun Gothic_MSFontService,sans-serif" font-style="normal" font-variant="normal" font-weight="400" font-stretch="normal" font-size="293" text-anchor="start" direction="ltr" writing-mode="lr-tb" unicode-bidi="normal" text-decoration="none" x="0.172821" y="704.34">ㅍㅊㄹㅇㅎㅍㅊㄹㅇ</tspan><tspan fill="#FFFFFF" fill-opacity="1" font-family="Malgun Gothic,Malgun Gothic_MSFontService,sans-serif" font-style="normal" font-variant="normal" font-weight="400" font-stretch="normal" font-size="293" text-anchor="start" direction="ltr" writing-mode="lr-tb" unicode-bidi="normal" text-decoration="none" x="0.259125" y="1056.51">ㄱㅎㅍㅊㄹㅇㅎㅇㅍ</tspan><tspan fill="#FFFFFF" fill-opacity="1" font-family="Malgun Gothic,Malgun Gothic_MSFontService,sans-serif" font-style="normal" font-variant="normal" font-weight="400" font-stretch="normal" font-size="293" text-anchor="start" direction="ltr" writing-mode="lr-tb" unicode-bidi="normal" text-decoration="none" x="0.345398" y="1408.68">ㅊ</tspan></text><path d="M1845.6 0.114579C1210.1-6.70286 505.276 278.77 0 718.81 163.483 958.508 459.864 1123.16 866.301 1163.49 1543.74 1230.75 2333.38 934.791 2885 454.305 2721.52 214.663 2425.14 49.9563 2018.7 9.62461 1961.67 3.95297 1903.97 0.744762 1845.6 0.114579Z" fill="#EAECEC" fill-rule="evenodd" fill-opacity="1" transform="matrix(-1 0 0 1 5499 6479)"/><path d="M1469.13 0.12422C979.454-5.12407 449.065 163.691 0 442.502 152.545 530.543 340.191 590.541 562.02 612.559 1097 665.663 1701.47 491.569 2204 179.715 2051.45 91.7364 1864.01 31.645 1642.29 9.65809 1585.25 3.97504 1527.49 0.745319 1469.13 0.12422Z" fill="#D4D7D7" fill-rule="evenodd" fill-opacity="1" transform="matrix(-1 0 0 1 5195 7030)"/><path d="M0 82.6049C-2.31047e-14 36.9835 36.9838-1.15523e-14 82.6056 0 128.227-2.31045e-14 165.211 36.9835 165.211 82.6049L165.211 1369.22C165.211 1414.84 128.227 1451.82 82.6056 1451.82 36.9838 1451.82 0 1414.84 0 1369.22Z" fill="#000000" fill-rule="evenodd" fill-opacity="1" transform="matrix(-0.912818 -0.408366 -0.408366 0.912818 5596.69 7541.9)"/><path d="M0 96.332C-1.60181e-14 43.1293 43.1294 0 96.3321 0 149.535-1.60181e-14 192.664 43.1293 192.664 96.332L192.664 406.933C192.664 460.136 149.534 503.265 96.3316 503.265L96.3321 503.265C43.1294 503.265 0 460.136 0 406.933Z" fill="#000000" fill-rule="evenodd" fill-opacity="1" transform="matrix(0.0332816 -0.999446 -0.999446 -0.0332816 5411.48 8911.88)"/><path d="M0 138.5C-3.52658e-14 62.0086 62.0086 0 138.5 0 214.992-3.52658e-14 277 62.0086 277 138.5 277 214.992 214.992 277 138.5 277 62.0086 277-5.28987e-14 214.992 0 138.5Z" fill="#000000" fill-rule="evenodd" fill-opacity="1" transform="matrix(-1 0 0 1 5106 8653)"/><path d="M0 82.6054C-1.96356e-14 36.9837 36.9838-9.81776e-15 82.6057 0 128.228-1.96355e-14 165.211 36.9837 165.211 82.6054L165.211 534.314C165.211 579.936 128.228 616.92 82.6057 616.92 36.9838 616.92-9.8178e-15 579.936 0 534.314Z" fill="#000000" fill-rule="evenodd" fill-opacity="1" transform="matrix(-0.546812 -0.837255 -0.837255 0.546812 5027.38 8915.1)"/><path d="M0 82.6058C-1.18277e-14 36.9839 36.9839 0 82.606 0 128.228-1.18277e-14 165.212 36.9839 165.212 82.6058L165.211 660.613C165.211 706.235 128.227 743.219 82.6052 743.219L82.606 743.218C36.9839 743.218 0 706.234 0 660.612Z" fill="#000000" fill-rule="evenodd" fill-opacity="1" transform="matrix(-0.120115 -0.99276 -0.99276 0.120115 4920.97 8945.4)"/><path d="M0 82.6054C-9.53925e-15 36.9837 36.9838-1.90785e-14 82.6056-1.90785e-14L82.6056 0C128.227-9.53923e-15 165.211 36.9837 165.211 82.6054L165.211 516.812C165.211 562.434 128.227 599.417 82.6056 599.417 36.9838 599.417-9.53925e-15 562.434 0 516.812Z" fill="#000000" fill-rule="evenodd" fill-opacity="1" transform="matrix(0.100902 -0.994896 -0.994896 -0.100902 4909.63 8869.32)"/><path d="M0 311C-7.90616e-14 139.239 139.016 0 310.5 0 481.984-7.91889e-14 621 139.239 621 311 621 482.761 481.984 622 310.5 622 139.016 622-1.18592e-13 482.761 0 311Z" fill="#000000" fill-rule="evenodd" fill-opacity="1" transform="matrix(-1 0 0 1 5727 7190)"/><path d="M1010.41 0.392446C869.372 4.31691 729.285 38.8522 600.048 103.606 498.112 154.624 405.595 223.302 327.266 306.108 248.818 388.914 185.63 484.671 140.325 589.454 25.5136 854.552 33.9785 1157.32 163.335 1415.95 193.975 1486.39 274.093 1583.91 355.76 1671.23 333.704 1841.95 316.417 2063.68 345.626 2165.32 347.653 2174.94 350.753 2183.96 353.018 2193.38L264.674 2243.42C157.732 2303.66 93.8282 2340.16 61.1612 2382.15 12.1607 2439.25-8.9417 2515.19 3.45746 2589.56 9.77626 2642.34 45.9007 2706.5 106.227 2813.25L504.073 3517.3C540.436 3581.86 567.619 3629.15 593.013 3665.05 673.846 3858.73 818.702 4021 1007.07 4121.47 1101.5 4171.7 1203.79 4204.86 1309.66 4219.97 1415.53 4234.89 1523.31 4231.35 1627.99 4209.18 1893.14 4153.06 2119.9 3982.35 2247.35 3743.35 2324.48 3593.04 2357.87 3356 2413.66 2961.01L2476.37 2519.31C2525.97 2168.27 2557.92 1942.22 2541.71 1779.94 2541.71 1779.74 2541.71 1779.55 2541.71 1779.35 2566.27 1458.53 2480.43 1126.91 2283.83 881.238 2279.89 876.332 2275.6 872.212 2271.55 867.502 2248.9 816.288 2184.99 744.078 2108.33 659.898 2040.97 585.922 1981.72 523.916 1935.22 490.754 1892.42 444.249 1848.9 399.118 1810.63 362.816 1703.81 261.958 1532.25 119.696 1426.38 80.4515 1293.68 23.1543 1151.57-3.53202 1010.41 0.392446Z" fill="#000000" fill-rule="evenodd" fill-opacity="1" transform="matrix(-1 0 0 1 4254 2291)"/><path d="M0 167.5C-4.265e-14 74.9923 74.9923 0 167.5 0 260.008-4.26499e-14 335 74.9923 335 167.5 335 260.008 260.008 335 167.5 335 74.9923 335-6.3975e-14 260.008 0 167.5Z" fill="#FB8930" fill-rule="evenodd" fill-opacity="1" transform="matrix(-1 0 0 1 3414 2851)"/><path d="M0 114.5C-2.91547e-14 51.2634 51.2634 0 114.5 0 177.737-2.91547e-14 229 51.2634 229 114.5 229 177.737 177.737 229 114.5 229 51.2634 229-4.37321e-14 177.737 0 114.5Z" fill="#281A02" fill-rule="evenodd" fill-opacity="1" transform="matrix(-1 0 0 1 3361 2904)"/><path d="M0 53.0001C-1.33679e-14 23.729 23.5051 0 52.5001 0 81.4951-1.34952e-14 105 23.729 105 53.0001 105 82.2713 81.4951 106 52.5001 106 23.5051 106-2.00519e-14 82.2713 0 53.0001Z" fill="#FFFFFF" fill-rule="evenodd" fill-opacity="1" transform="matrix(-1 0 0 1 3246 2913)"/><path d="M73.4637 0C89.1034 96.9113 118.446 192.105 163.356 281.859 193.918 352.288 274.126 449.771 355.768 537.235 333.672 707.868 316.382 929.604 345.652 1031.38 347.661 1040.83 350.674 1049.85 352.97 1059.3L264.656 1109.4C157.76 1169.66 93.8384 1206.17 61.1958 1248.11 12.1961 1305.37-8.89599 1381.24 3.44361 1455.53 9.7569 1508.5 45.9148 1572.48 106.25 1679.41L503.987 2383.56C540.36 2447.98 567.622 2495.36 592.947 2531.15 673.8 2724.97 818.647 2887.3 1006.9 2987.65 1101.31 3037.89 1203.61 3071.24 1309.5 3086.13 1329.38 3088.99 1349.39 3090.43 1369.34 3092 1375.72 3047.62 1381.75 3007.83 1388.64 2958.73L1451.27 2517.12C1507.15 2121.89 1540.73 1884.83 1508.37 1718.92 1495.53 1658.37 1475.8 1600.25 1451.55 1544.28 1451.7 1479.01 1449.04 1419.17 1437.78 1380.09 1396.53 1185.12 1293.65 1011.34 1148.09 880.934 1132.23 828.971 1113.51 777.724 1088.9 728.481 1043.92 624.842 892.397 461.366 785.645 360.304 678.965 259.384 507.359 117.095 401.468 78.0157 296.437 32.4946 185.166 7.01426 73.4637 0Z" fill="#0E0E0E" fill-rule="evenodd" fill-opacity="1" transform="matrix(-1 0 0 1 4254 3425)"/><path d="M0 64.4578C-8.58887e-15 28.8588 28.8587 0 64.4576 0L475.243 0C510.842-8.5889e-15 539.7 28.8588 539.7 64.4578L539.7 64.4578C539.7 100.057 510.841 128.916 475.242 128.916L64.4576 128.915C28.8587 128.915 0 100.056 0 64.4573Z" fill="#FFFFFF" fill-rule="evenodd" fill-opacity="1" transform="matrix(-0.142832 -0.989747 -0.989747 0.142832 2041.59 5408.06)"/><path d="M0 71.5C-1.82058e-14 32.0116 32.0116 0 71.5 0 110.988-1.82058e-14 143 32.0116 143 71.5 143 110.988 110.988 143 71.5 143 32.0116 143-2.73087e-14 110.988 0 71.5Z" fill="#FFFFFF" fill-rule="evenodd" fill-opacity="1" transform="matrix(-1 0 0 1 2082 5467)"/><path d="M0 635.722C-1.26428e-13 284.623 284.622 0 635.721 0L3336.45 0C3687.55-1.26428e-13 3972.17 284.623 3972.17 635.722 3972.17 986.822 3687.55 1271.44 3336.45 1271.44L635.721 1271.44C284.622 1271.44 0 986.822 0 635.722Z" fill="#0C282E" fill-rule="evenodd" fill-opacity="1" transform="matrix(-0.715253 -0.698866 -0.698866 0.715253 7028.03 6715.76)"/><path d="M2130.06 0.0983768C2038.29-0.983768 1946.16 17.8062 1860.64 56.5666 1754.64 106.542 1635.88 222.627 1437.99 416.035L0 1821.25C21.5926 1853.32 45.6389 1883.72 72.7523 1911.46 124.525 1964.49 185.132 2008.26 251.995 2040.33 421.301 2121.79 617.843 2123.95 789.111 2046.53 895.111 1996.56 1013.75 1880.47 1211.76 1687.06L2650 281.554C2628.53 249.483 2604.36 219.282 2577.25 191.638 2525.47 138.613 2464.87 94.8352 2398 62.666 2313.35 22.0364 2221.83 1.18052 2130.06 0.0983768Z" fill="#081C20" fill-rule="evenodd" fill-opacity="1" transform="matrix(-1 0 0 1 6656 5259)"/><path d="M0 310.736C-8.18907e-14 139.121 139.121-4.09454e-14 310.736-4.09454e-14L975.708 0C1147.32-8.18908e-14 1286.44 139.121 1286.44 310.736 1286.44 482.351 1147.32 621.472 975.708 621.472L310.736 621.472C139.121 621.472 0 482.351 0 310.736Z" fill="#FFFFFF" fill-rule="evenodd" fill-opacity="1" transform="matrix(-0.890081 -0.455803 -0.455803 0.890081 5333.94 5092.6)"/><path d="M0 64.4578C-8.58887e-15 28.8588 28.8587 0 64.4576 0L475.243 0C510.842-8.5889e-15 539.7 28.8588 539.7 64.4578L539.7 64.4578C539.7 100.057 510.841 128.916 475.242 128.916L64.4576 128.915C28.8587 128.915 0 100.056 0 64.4573Z" fill="#FFFFFF" fill-rule="evenodd" fill-opacity="1" transform="matrix(-0.915229 -0.402934 -0.402934 0.915229 6574.15 6628.4)"/><path d="M0 64.4578C-8.58887e-15 28.8588 28.8587 0 64.4576 0L475.243 0C510.842-8.5889e-15 539.7 28.8588 539.7 64.4578L539.7 64.4578C539.7 100.057 510.841 128.916 475.242 128.916L64.4576 128.915C28.8587 128.915 0 100.056 0 64.4573Z" fill="#FFFFFF" fill-rule="evenodd" fill-opacity="1" transform="matrix(-0.915229 -0.402934 -0.402934 0.915229 6504.21 6409.8)"/><path d="M0 64.4578C-8.58887e-15 28.8588 28.8587 0 64.4576 0L475.243 0C510.842-8.5889e-15 539.7 28.8588 539.7 64.4578L539.7 64.4578C539.7 100.057 510.841 128.916 475.242 128.916L64.4576 128.915C28.8587 128.915 0 100.056 0 64.4573Z" fill="#FFFFFF" fill-rule="evenodd" fill-opacity="1" transform="matrix(-0.915229 -0.402934 -0.402934 0.915229 6430.09 6193.3)"/><path d="M0 491.119C-7.44961e-14 219.882 219.881 0 491.118 0L4190.01 0C4461.24-7.44963e-14 4681.12 219.882 4681.12 491.119L4681.12 491.119C4681.12 762.357 4461.24 982.239 4190 982.239L491.118 982.234C219.881 982.234 0 762.352 0 491.114Z" fill="#0C282E" fill-rule="evenodd" fill-opacity="1" transform="matrix(-0.895251 -0.445562 -0.445562 0.895251 9900 8497.01)"/><path d="M2939.55 0C2921.57 0.078036 2903.59 1.01447 2885.46 3.04341 2795.72 14.6708 2680.96 72.0273 2489.44 167.309L0 1405.9C25.1712 1454.59 58.1594 1498.84 97.8705 1536.61 203.245 1636.65 347.237 1685.27 491.541 1668.96 581.282 1657.33 696.037 1599.97 887.557 1504.69L3377 266.181C3351.83 217.408 3318.84 172.928 3279.13 135.08 3187.04 47.602 3065.25-0.312144 2939.55 0Z" fill="#081C20" fill-rule="evenodd" fill-opacity="1" transform="matrix(-1 0 0 1 9678 7537)"/><path d="M0 64.4575C-1.05735e-14 28.8586 28.8586 0 64.4574 0L1264.36 0C1299.96-1.05736e-14 1328.82 28.8586 1328.82 64.4575 1328.82 100.056 1299.96 128.915 1264.36 128.915L64.4574 128.915C28.8586 128.915 0 100.056 0 64.4575Z" fill="#FFFFFF" fill-rule="evenodd" fill-opacity="1" transform="matrix(-0.893349 -0.449363 -0.449363 0.893349 8679.27 7971.84)"/><path d="M0 71.5C-1.82058e-14 32.0116 32.0116 0 71.5 0 110.988-1.82058e-14 143 32.0116 143 71.5 143 110.988 110.988 143 71.5 143 32.0116 143-2.73087e-14 110.988 0 71.5Z" fill="#FFFFFF" fill-rule="evenodd" fill-opacity="1" transform="matrix(-1 0 0 1 9323 8248)"/><path d="M0 64.4574C-7.32079e-15 28.8585 28.8585-7.3208e-15 64.4573-7.3208e-15L395.56 0C431.159-7.3208e-15 460.017 28.8585 460.017 64.4574 460.017 100.056 431.159 128.915 395.56 128.915L64.4573 128.915C28.8585 128.915 0 100.056 7.32079e-15 64.4574Z" fill="#FFFFFF" fill-rule="evenodd" fill-opacity="1" transform="matrix(-0.893349 -0.449363 -0.449363 0.893349 9148.18 8206.67)"/><path d="M1642.5 3197.38C3628.84 6310.84 4473.94 5896.88 4177.95 1955.5" stroke="#C17D5D" stroke-width="9.16667" stroke-linecap="butt" stroke-linejoin="miter" stroke-miterlimit="4" stroke-opacity="1" fill="none" fill-rule="evenodd"/><path d="M4141.99 2274.49C4140.63 2237.96 4169.15 2207.24 4205.68 2205.89 4242.22 2204.54 4272.93 2233.06 4274.28 2269.59L4281.51 2464.7C4282.86 2501.23 4254.34 2531.94 4217.81 2533.3L4217.81 2533.29C4181.28 2534.65 4150.57 2506.13 4149.21 2469.6Z" fill="#593A2C" fill-rule="evenodd" fill-opacity="1"/><path d="M4147.93 2599.82C4147.77 2563.26 4177.28 2533.5 4213.84 2533.34 4250.39 2533.18 4280.16 2562.69 4280.32 2599.24L4281.16 2794.49C4281.32 2831.04 4251.81 2860.81 4215.26 2860.97L4215.26 2860.97C4178.7 2861.12 4148.94 2831.62 4148.78 2795.06Z" fill="#593A2C" fill-rule="evenodd" fill-opacity="1"/><path d="M4147.93 2927.45C4147.77 2890.89 4177.28 2861.13 4213.84 2860.97 4250.39 2860.81 4280.16 2890.31 4280.32 2926.87L4281.16 3122.11C4281.32 3158.67 4251.81 3188.43 4215.26 3188.59L4215.26 3188.59C4178.7 3188.75 4148.94 3159.24 4148.78 3122.69Z" fill="#593A2C" fill-rule="evenodd" fill-opacity="1"/><path d="M4172.86 3255.07C4172.7 3218.52 4202.2 3188.75 4238.76 3188.59 4275.32 3188.43 4305.08 3217.94 4305.24 3254.5L4306.09 3449.74C4306.25 3486.3 4276.74 3516.06 4240.18 3516.22L4240.18 3516.22C4203.63 3516.38 4173.86 3486.87 4173.7 3450.31Z" fill="#593A2C" fill-rule="evenodd" fill-opacity="1"/><path d="M4174.54 3575.69C4178.25 3539.33 4210.74 3512.85 4247.1 3516.56 4283.47 3520.27 4309.95 3552.76 4306.24 3589.13L4286.42 3783.36C4282.71 3819.73 4250.22 3846.21 4213.86 3842.5L4213.86 3842.5C4177.49 3838.79 4151.01 3806.3 4154.72 3769.93Z" fill="#593A2C" fill-rule="evenodd" fill-opacity="1"/><path d="M4149.61 3902.31C4153.32 3865.95 4185.81 3839.47 4222.18 3843.18 4258.55 3846.89 4285.02 3879.38 4281.31 3915.75L4261.5 4109.98C4257.79 4146.35 4225.3 4172.83 4188.93 4169.12L4188.93 4169.12C4152.56 4165.41 4126.09 4132.92 4129.8 4096.55Z" fill="#593A2C" fill-rule="evenodd" fill-opacity="1"/><path d="M4122.63 4226.25C4128.17 4190.12 4161.95 4165.31 4198.08 4170.84 4234.22 4176.38 4259.03 4210.16 4253.49 4246.3L4223.93 4439.29C4218.39 4475.42 4184.61 4500.23 4148.48 4494.7L4148.48 4494.69C4112.34 4489.16 4087.53 4455.38 4093.07 4419.24Z" fill="#593A2C" fill-rule="evenodd" fill-opacity="1"/><path d="M4054.05 4542.99C4064.36 4507.91 4101.15 4487.84 4136.22 4498.14 4171.3 4508.45 4191.37 4545.24 4181.07 4580.31L4126.01 4767.64C4115.71 4802.71 4078.92 4822.79 4043.84 4812.48L4043.84 4812.48C4008.77 4802.17 3988.69 4765.38 3999 4730.31Z" fill="#593A2C" fill-rule="evenodd" fill-opacity="1"/><path d="M4090.7 1959.39C4084.16 1923.42 4108.02 1888.97 4143.99 1882.43 4179.96 1875.89 4214.42 1899.75 4220.95 1935.72L4255.86 2127.82C4262.4 2163.79 4238.54 2198.24 4202.57 2204.78L4202.57 2204.78C4166.6 2211.32 4132.14 2187.46 4125.61 2151.49Z" fill="#593A2C" fill-rule="evenodd" fill-opacity="1"/><path d="M3967.18 4852.18C3983.3 4819.37 4022.96 4805.83 4055.78 4821.94 4088.59 4838.05 4102.13 4877.72 4086.02 4910.53L3999.96 5085.79C3983.84 5118.6 3944.18 5132.14 3911.37 5116.03L3911.37 5116.03C3878.55 5099.91 3865.01 5060.25 3881.13 5027.44Z" fill="#593A2C" fill-rule="evenodd" fill-opacity="1"/><path d="M3813.13 5090.11C3844.95 5072.11 3885.34 5083.32 3903.34 5115.14 3921.33 5146.96 3910.13 5187.35 3878.31 5205.34L3708.36 5301.46C3676.54 5319.46 3636.15 5308.25 3618.16 5276.43L3618.16 5276.43C3600.16 5244.61 3611.37 5204.22 3643.19 5186.23Z" fill="#593A2C" fill-rule="evenodd" fill-opacity="1"/><path d="M3558.54 5192.04C3594.34 5199.45 3617.34 5234.48 3609.93 5270.28 3602.52 5306.08 3567.49 5329.09 3531.69 5321.67L3340.5 5282.07C3304.71 5274.66 3281.7 5239.63 3289.11 5203.83L3289.11 5203.83C3296.53 5168.03 3331.56 5145.02 3367.35 5152.44Z" fill="#593A2C" fill-rule="evenodd" fill-opacity="1"/><path d="M3279.78 5089.53C3308.58 5112.05 3313.66 5153.65 3291.14 5182.45 3268.62 5211.25 3227.02 5216.33 3198.22 5193.81L3044.43 5073.54C3015.63 5051.01 3010.54 5009.41 3033.06 4980.62L3033.06 4980.62C3055.59 4951.82 3097.19 4946.73 3125.98 4969.25Z" fill="#593A2C" fill-rule="evenodd" fill-opacity="1"/><path d="M3040.5 4893.11C3066.53 4918.78 3066.83 4960.69 3041.16 4986.72 3015.49 5012.76 2973.58 5013.05 2947.55 4987.39L2808.52 4850.31C2782.48 4824.65 2782.19 4782.74 2807.85 4756.71L2807.85 4756.71C2833.52 4730.67 2875.43 4730.38 2901.46 4756.04Z" fill="#593A2C" fill-rule="evenodd" fill-opacity="1"/><path d="M2813.77 4664.43C2837.93 4691.87 2835.27 4733.7 2807.84 4757.86 2780.4 4782.02 2738.58 4779.36 2714.42 4751.92L2585.38 4605.39C2561.23 4577.96 2563.88 4536.13 2591.32 4511.97L2591.32 4511.97C2618.75 4487.81 2660.58 4490.47 2684.74 4517.9Z" fill="#593A2C" fill-rule="evenodd" fill-opacity="1"/><path d="M2605.23 4437.25C2627.7 4466.09 2622.54 4507.68 2593.7 4530.15 2564.87 4552.62 2523.27 4547.46 2500.8 4518.62L2380.8 4364.61C2358.33 4335.77 2363.5 4294.18 2392.33 4271.71L2392.33 4271.71C2421.17 4249.24 2462.76 4254.41 2485.23 4283.24Z" fill="#593A2C" fill-rule="evenodd" fill-opacity="1"/><path d="M2399.26 4196.22C2419.88 4226.4 2412.13 4267.59 2381.95 4288.21 2351.76 4308.83 2310.57 4301.08 2289.95 4270.9L2179.81 4109.68C2159.19 4079.5 2166.94 4038.31 2197.13 4017.69L2197.13 4017.69C2227.31 3997.06 2268.5 4004.82 2289.12 4035Z" fill="#593A2C" fill-rule="evenodd" fill-opacity="1"/><path d="M2220.53 3932.3C2239.78 3963.39 2230.18 4004.18 2199.1 4023.43 2168.02 4042.67 2127.22 4033.08 2107.98 4002L2005.19 3836C1985.95 3804.92 1995.54 3764.12 2026.63 3744.87L2026.63 3744.87C2057.71 3725.63 2098.5 3735.22 2117.75 3766.31Z" fill="#593A2C" fill-rule="evenodd" fill-opacity="1"/><path d="M2022.63 3656.83C2041.88 3687.91 2032.28 3728.71 2001.2 3747.95 1970.12 3767.2 1929.32 3757.6 1910.08 3726.52L1807.29 3560.52C1788.05 3529.44 1797.64 3488.64 1828.72 3469.4L1828.72 3469.4C1859.81 3450.15 1900.6 3459.75 1919.85 3490.83Z" fill="#593A2C" fill-rule="evenodd" fill-opacity="1"/><path d="M1836.04 3385.94C1855.29 3417.02 1845.69 3457.82 1814.61 3477.06 1783.53 3496.31 1742.73 3486.71 1723.48 3455.63L1620.7 3289.63C1601.46 3258.55 1611.05 3217.75 1642.13 3198.51L1642.13 3198.51C1673.21 3179.26 1714.01 3188.86 1733.26 3219.94Z" fill="#593A2C" fill-rule="evenodd" fill-opacity="1"/><path d="M179.382 0.221367C154.51 0.917092 135.219 3.00427 119.811 7.90596 70.6125 24.3504 31.3631 61.8246 12.3147 110.083 4.85309 129.12 0.606636 149.454 0.0606636 169.915-0.485309 190.344 2.79053 210.646 9.28154 230.032 25.7214 279.207 62.9082 318.421 111.196 337.427 111.5 337.553 111.985 337.711 112.47 337.743 112.895 337.743 113.38 337.616 113.684 337.743 126.544 345.585 141.71 353.238 160.941 361.65 180.171 370.094 203.466 379.328 232.22 390.207L888.116 638.106C923.604 651.515 951.873 662.203 975.35 669.698 998.888 677.193 1017.63 681.526 1033.71 681.968 1085.21 682.632 1134.29 660.527 1167.9 621.535 1181.18 606.134 1191.74 588.678 1198.9 569.672 1206.11 550.698 1210 530.458 1210.3 510.156 1210.36 503.325 1209.15 496.653 1208.42 489.917 1244.45 480.113 1275.21 456.427 1292.86 423.317 1300.33 409.371 1305.42 394.223 1307.6 378.538 1309.85 362.852 1309.36 346.787 1306.09 331.291 1297.78 292.046 1272.42 258.715 1236.99 239.867 1230.68 236.61 1220.49 234.617 1211.82 232.182 1213.82 222.158 1214.91 211.817 1215.21 201.507 1215.7 181.047 1212.79 160.459 1206.3 141.074 1189.8 91.8989 1152.31 52.6537 1104.02 33.6794 1088.91 27.9871 1069.8 24.8563 1045.05 22.9273 1020.3 20.9982 989.909 20.2393 951.691 19.2589L273.047 1.4547C234.829 0.474358 204.254-0.442734 179.382 0.221367Z" fill="#5E5E5E" fill-rule="evenodd" fill-opacity="1" transform="matrix(-1 0 0 1 5105 2845)"/><path d="M112.741 0.237553C87.8954 0.902703 68.5655 3.00901 53.1319 7.90261 33.4478 14.4908 15.8384 25.2915 0 37.961 9.71555 41.7777 16.648 45.0401 27.9322 49.3003L684.137 297.116C719.609 310.53 747.845 321.204 771.374 328.711 794.904 336.217 813.678 340.525 829.718 340.984 881.231 341.633 930.365 319.541 963.965 280.551 977.223 265.173 987.799 247.705 994.984 228.732 1002.22 209.744 1006.12 189.52 1006.37 169.217 1006.47 162.392 1005.26 155.708 1004.55 148.978 1040.53 139.19 1071.34 115.514 1089 82.431 1091.08 78.5193 1091.28 73.9266 1093 69.8565 1076.96 54.8432 1058.64 41.9044 1037.69 33.6692 1022.56 27.9838 1003.49 24.8639 978.741 22.9318 953.946 20.9997 923.534 20.2395 885.33 19.2418L206.456 1.45699C168.251 0.45927 137.586-0.443433 112.741 0.237553Z" fill="#454445" fill-rule="evenodd" fill-opacity="1" transform="matrix(-1 0 0 1 4901 3186)"/><path d="M66.8413 3900.44C6.92877 3785.28 1139.05 3077.65 2595.51 2319.89 4051.96 1562.13 5281.22 1041.2 5341.13 1156.36 5401.04 1271.51 4268.92 1979.15 2812.47 2736.91 1356.01 3494.66 126.754 4015.59 66.8413 3900.44Z" fill="#1E1E1E" fill-rule="evenodd" fill-opacity="1"/><path d="M1748.95 3025.28C1727.25 2983.58 2137.25 2727.31 2664.7 2452.89 3192.15 2178.47 3637.32 1989.81 3659.02 2031.52 3680.72 2073.22 3270.72 2329.49 2743.27 2603.91 2215.82 2878.33 1770.65 3066.98 1748.95 3025.28Z" fill="#111112" fill-rule="evenodd" fill-opacity="1"/><path d="M1302.57 744.032 2081.01 349.672 3340.84 2198.86C3140.29 2329.7 2933.43 2450.57 2720.92 2561.02 2505.01 2673.35 2283.61 2774.69 2057.49 2864.78L1302.57 744.032Z" fill="#1E1E1E" fill-rule="evenodd" fill-opacity="1"/></g></svg>