<svg width="1855" height="1701" xmlns="http://www.w3.org/2000/svg" xmlns:xlink="http://www.w3.org/1999/xlink" overflow="hidden"><defs><clipPath id="clip0"><rect x="37" y="114" width="1855" height="1701"/></clipPath></defs><g clip-path="url(#clip0)" transform="translate(-37 -114)"><path d="M423.663 114 274.415 189.628 404.365 554.612C317.703 601.801 236.351 648.596 170.845 689.482-18.503 807.887-5.31327 833.175 200.323 746.045 242.371 728.241 289.464 706.892 339.036 683.495L351.606 703.82C354.528 708.547 356.298 711.383 358.069 712.879 360.99 715.164 364.885 716.031 368.514 715.322 368.514 715.243 368.603 715.243 368.603 715.243 355.324 750.536 350.102 789.374 353.023 827.424 353.023 827.503 353.023 827.503 353.023 827.582 349.925 858.7 356.033 902.028 365.504 969.384L377.543 1054.07C385.864 1112.84 391.618 1153.18 400.648 1181.85 406.224 1209.98 417.555 1239.52 435.26 1269.61 470.491 1329.48 525.198 1382.58 589.287 1423.94 589.553 1424.1 589.819 1424.26 590.084 1424.41 604.867 1433.95 620.004 1442.77 635.673 1450.96 636.115 1451.2 636.558 1451.43 637.001 1451.67 652.049 1459.47 667.541 1466.72 683.209 1473.18 684.36 1473.73 685.599 1474.2 686.838 1474.75 694.628 1477.9 702.418 1480.9 710.208 1483.73 710.562 1483.81 710.828 1483.89 711.182 1484.05 714.546 1485.23 717.998 1486.41 721.45 1487.59 721.982 1502.01 727.735 1516.35 738.801 1527.38 744.289 1532.89 750.663 1537.07 757.479 1539.98L567.954 1695.02C562.731 1695.81 557.774 1698.17 553.702 1702.19 551.046 1701.4 547.417 1701.01 541.928 1700.46L475.802 1693.76C468.898 1693.05 464.826 1692.66 461.993 1693.29 457.39 1694.47 453.584 1697.54 451.548 1701.79 450.751 1703.45 450.308 1705.18 450.131 1707.07 449.866 1708.88 450.043 1710.78 450.485 1712.59 451.636 1717.08 454.734 1720.86 458.983 1722.91 461.639 1724.17 465.711 1724.56 472.616 1725.27L486.16 1726.61 443.758 1731.73C436.941 1732.6 432.781 1733.07 430.214 1734.33 426.053 1736.46 422.955 1740.32 421.893 1744.89 421.539 1746.7 421.45 1748.59 421.627 1750.4 421.893 1752.21 422.424 1754.02 423.221 1755.68 425.345 1759.85 429.24 1762.85 433.755 1763.95 436.587 1764.5 440.748 1764.03 447.564 1763.24L508.024 1755.92 489.346 1768.13C483.504 1771.91 480.052 1774.11 478.281 1776.48 475.537 1780.18 474.475 1784.99 475.537 1789.55 475.98 1791.37 476.688 1793.02 477.75 1794.6 478.724 1796.17 479.963 1797.51 481.468 1798.61 485.186 1801.45 490.055 1802.47 494.569 1801.37 497.402 1800.66 500.854 1798.38 506.697 1794.6L565.121 1756.47C570.963 1752.69 574.416 1750.4 576.186 1748.12 576.363 1747.8 576.54 1747.49 576.717 1747.17 580.524 1746.54 584.242 1744.97 587.517 1742.6 589.11 1742.68 590.261 1742.76 592.12 1742.84L632.132 1744.1C640.187 1744.41 644.968 1744.57 648.243 1743.55 653.466 1741.89 657.626 1737.95 659.662 1732.91 660.459 1730.86 660.901 1728.74 660.99 1726.61 661.079 1724.48 660.724 1722.28 660.105 1720.23 658.423 1715.11 654.528 1710.93 649.482 1708.88 646.295 1707.62 641.427 1707.47 633.371 1707.23L604.248 1706.21 804.218 1542.74C807.671 1539.9 810.061 1537.85 811.92 1536.04 815.815 1533.68 819.621 1530.76 823.073 1527.38 827.588 1522.81 831.217 1517.61 834.05 1512.09 834.493 1512.17 835.024 1512.17 835.555 1512.25 838.388 1512.49 841.132 1512.72 843.965 1512.96 845.204 1513.04 846.355 1513.2 847.594 1513.28 849.453 1513.35 851.312 1513.51 853.171 1513.59 854.144 1513.67 855.207 1513.67 856.181 1513.75 861.492 1513.98 866.803 1514.14 872.026 1514.14 873 1514.14 873.885 1514.22 874.859 1514.22 876.009 1514.22 877.249 1514.14 878.4 1514.14 879.727 1514.14 881.055 1514.14 882.383 1514.14 885.481 1514.06 888.579 1513.98 891.678 1513.83 892.917 1513.83 894.156 1513.75 895.396 1513.67 896.281 1513.67 897.166 1513.59 898.051 1513.51 903.097 1513.28 908.143 1512.88 913.1 1512.41 913.189 1512.41 913.277 1512.41 913.366 1512.33 918.323 1511.86 923.192 1511.23 927.972 1510.6 928.326 1510.52 928.768 1510.52 929.211 1510.44 930.45 1510.2 931.778 1509.97 933.017 1509.73 936.47 1509.26 939.834 1508.71 943.109 1508.08 944.968 1507.68 946.827 1507.29 948.686 1506.89 951.607 1506.26 954.44 1505.63 957.272 1504.93 959.22 1504.45 961.167 1503.9 963.203 1503.43 965.593 1502.8 967.983 1502.09 970.374 1501.38 972.675 1500.75 974.977 1500.04 977.19 1499.25 978.96 1498.7 980.731 1498.15 982.413 1497.52 985.157 1496.57 987.901 1495.63 990.468 1494.61 991.619 1494.13 992.681 1493.66 993.832 1493.19 996.93 1492.01 999.94 1490.67 1002.95 1489.33 1003.22 1489.17 1003.57 1489.01 1003.92 1488.85 1003.92 1488.85 1003.92 1488.85 1003.92 1488.85 1004.81 1502.88 1010.47 1516.66 1021.19 1527.38 1027.29 1533.44 1034.37 1537.85 1041.9 1540.77L966.921 1708.25C963.823 1709.51 960.99 1711.41 958.423 1713.93 957.981 1714.4 957.627 1714.95 957.184 1715.42 954.617 1714.64 950.899 1714.24 945.233 1713.61L879.108 1706.91C872.203 1706.21 868.131 1705.81 865.21 1706.52 860.695 1707.62 856.889 1710.7 854.853 1714.95 854.056 1716.6 853.525 1718.42 853.348 1720.23 853.171 1722.04 853.348 1723.93 853.79 1725.74 854.941 1730.23 858.039 1734.09 862.289 1736.14 864.856 1737.32 869.016 1737.72 875.921 1738.43L889.465 1739.84 847.063 1744.97C840.247 1745.75 836.086 1746.3 833.519 1747.57 829.27 1749.69 826.26 1753.55 825.198 1758.12 824.844 1759.85 824.667 1761.75 824.932 1763.56 825.109 1765.45 825.641 1767.18 826.526 1768.84 828.65 1773.01 832.457 1776 837.06 1777.11 839.892 1777.74 844.053 1777.26 850.869 1776.4L911.33 1769.07 892.652 1781.28C886.809 1785.06 883.357 1787.35 881.586 1789.63 878.754 1793.34 877.78 1798.22 878.842 1802.71 879.285 1804.52 879.993 1806.26 881.055 1807.83 882.029 1809.33 883.268 1810.67 884.773 1811.77 888.491 1814.61 893.36 1815.63 897.874 1814.53 900.707 1813.82 904.159 1811.61 910.002 1807.83L968.426 1769.62C974.269 1765.84 977.721 1763.56 979.491 1761.27 980.022 1760.48 980.465 1759.7 980.908 1758.83 985.422 1758.2 989.76 1756.39 993.478 1753.47 993.743 1753.47 993.92 1753.47 994.186 1753.47L1034.2 1754.81C1042.16 1755.05 1047.03 1755.29 1050.31 1754.26 1055.44 1752.53 1059.6 1748.67 1061.64 1743.55 1062.44 1741.58 1062.97 1739.45 1062.97 1737.32 1063.06 1735.12 1062.79 1732.99 1062.08 1730.94 1060.4 1725.74 1056.51 1721.57 1051.46 1719.52 1048.27 1718.34 1043.4 1718.18 1035.35 1717.87L998.258 1716.68C998.169 1716.6 998.081 1716.45 997.992 1716.37L1075.27 1543.53C1086.34 1541.32 1096.87 1535.96 1105.46 1527.38 1116.52 1516.35 1122.19 1502.09 1122.81 1487.59 1133.96 1493.82 1147.51 1500.59 1164.41 1509.02L1233.02 1543.13C1233.02 1543.13 1233.02 1543.21 1233.02 1543.21L1710.33 1780.65C1728.65 1789.79 1743.35 1797.12 1755.56 1802.4 1767.87 1807.75 1777.69 1811.06 1786.28 1812.16 1803.54 1814.13 1820.8 1811.22 1836.29 1804.05 1845.59 1799.8 1854.17 1794.04 1861.7 1786.8 1869.67 1779.23 1876.31 1770.33 1881.17 1760.48 1886.04 1750.64 1889.23 1740.08 1890.47 1729.13 1893.57 1701.48 1884.27 1673.83 1865.15 1653.66 1853.02 1641.29 1830.98 1630.34 1794.25 1612.06L1316.05 1374.07C1325.52 1344.53 1323.49 1312.23 1309.85 1283.87 1299.85 1263.78 1277.01 1241.57 1239.13 1204.46L960.902 932.594C922.926 895.49 900.087 873.274 879.816 863.663 866.715 857.754 852.905 854.367 838.919 853.343 837.768 851.137 836.086 849.325 833.873 848.064 832.545 847.355 831.129 846.883 829.713 846.725 828.208 846.489 826.791 846.489 825.286 846.804 821.657 847.513 818.47 849.876 816.611 853.106 816.611 853.264 816.523 853.5 816.434 853.658 802.89 855.076 789.612 858.778 776.954 864.766 776.599 846.174 774.563 824.982 772.262 806.705 787.842 789.925 803.245 771.255 809.087 757.784 811.123 753.687 812.982 749.512 814.752 745.336 814.929 744.864 815.106 744.391 815.284 743.918 818.647 735.568 821.48 727.06 823.604 718.394 825.021 717.842 826.526 717.37 828.119 716.74 829.536 718.394 831.306 719.654 833.43 720.442 834.847 720.915 836.263 721.151 837.768 721.151 839.273 721.151 840.689 720.915 842.106 720.363 845.646 719.103 848.391 716.267 849.63 712.801 850.073 711.698 850.25 710.28 850.338 708.468L959.043 667.266C964.531 665.218 969.046 663.406 972.675 661.831 976.393 660.176 979.314 658.758 981.793 657.182 981.793 657.182 981.97 657.261 982.058 657.182 982.147 657.182 982.147 657.182 982.235 657.182 991.53 653.559 998.612 645.996 1001.8 636.542 1003.04 632.84 1003.66 628.98 1003.57 625.041 1003.48 621.102 1002.6 617.241 1001.18 613.539 997.55 604.322 990.025 597.153 980.642 593.923 977.632 593.056 973.914 592.584 969.223 592.505 964.443 592.347 958.512 592.505 951.253 592.741L835.112 595.735C834.316 595.577 833.519 595.498 832.722 595.498 831.748 595.498 830.775 595.656 829.89 595.892L821.126 596.129C817.497 596.207 815.195 596.365 812.185 596.523 803.599 577.537 792.002 560.127 777.662 544.922 762.702 529.088 744.909 515.853 725.345 506.084 718.352 502.539 711.093 499.545 703.835 497.024 741.279 476.384 777.396 456.059 811.566 436.207L814.575 452.908C815.549 458.344 816.169 461.574 817.319 463.622 819.178 466.852 822.454 469.058 826.172 469.688 827.588 470.003 829.093 469.924 830.509 469.688 832.014 469.452 833.43 468.9 834.67 468.191 837.945 466.301 840.158 463.071 840.778 459.368 841.132 457.083 840.512 453.775 839.538 448.339L835.289 424.705C835.112 423.917 835.024 423.445 834.847 422.657 863.616 405.798 890.704 389.491 915.49 374.05 1104.84 255.645 1091.65 230.357 886.101 317.487 814.575 347.738 729.152 387.758 640.276 431.874L423.663 114ZM831.129 469.924C829.713 470.003 828.208 470.318 826.791 470.87 823.339 472.288 820.683 475.124 819.533 478.669 818.824 480.953 819.001 484.262 819.178 489.777L820.064 513.804C820.241 519.319 820.418 522.628 821.214 524.834 822.631 528.3 825.552 530.978 829.093 532.081 830.509 532.554 832.014 532.711 833.519 532.711 834.935 532.633 836.44 532.318 837.768 531.766 841.22 530.348 843.965 527.512 845.115 523.888 845.735 521.682 845.646 518.374 845.469 512.859L844.584 488.831C844.319 483.317 844.23 480.008 843.345 477.802 842.017 474.336 839.096 471.658 835.555 470.555 834.139 470.082 832.634 469.846 831.129 469.924ZM832.722 532.711C831.217 532.711 829.801 533.027 828.385 533.499 824.844 534.76 822.1 537.596 820.86 541.062 820.064 543.347 820.064 546.655 820.064 552.17L820.241 576.198C820.241 581.712 820.241 585.021 821.037 587.227 822.365 590.772 825.109 593.529 828.65 594.789 830.067 595.262 831.483 595.498 832.988 595.498 834.493 595.498 835.909 595.262 837.325 594.711 840.866 593.45 843.61 590.693 844.85 587.148 845.646 584.942 845.646 581.633 845.646 576.04L845.469 552.012C845.469 546.498 845.469 543.189 844.673 540.983 843.345 537.517 840.601 534.76 837.06 533.42 835.643 532.948 834.227 532.711 832.722 532.711ZM405.251 651.747C405.074 651.983 404.897 652.298 404.808 652.613 404.011 653.48 403.215 654.268 402.418 655.213 392.326 667.896 383.828 681.762 376.747 696.415 375.861 694.76 374.711 692.87 373.206 690.506L362.141 672.544C376.304 665.769 390.733 658.837 405.251 651.747ZM836.883 721.23C836.175 721.23 835.378 721.388 834.67 721.545 831.04 722.49 828.031 724.933 826.349 728.32 825.375 730.447 825.109 733.756 824.49 739.27L822.1 763.141C821.48 768.655 821.126 771.964 821.746 774.17 822.631 777.872 825.109 780.866 828.473 782.52 829.801 783.15 831.217 783.544 832.722 783.702 834.227 783.859 835.643 783.781 837.148 783.387 840.778 782.52 843.787 779.999 845.381 776.612 846.443 774.485 846.797 771.255 847.328 765.74L849.807 741.791C850.338 736.356 850.604 733.047 850.073 730.762 849.187 727.138 846.709 724.066 843.345 722.412 842.017 721.781 840.601 721.388 839.096 721.23 838.388 721.151 837.591 721.151 836.883 721.23ZM832.103 783.859C831.394 783.859 830.598 784.017 829.89 784.175 826.26 785.12 823.25 787.562 821.569 790.95 820.595 793.077 820.241 796.385 819.71 801.9L817.231 825.77C816.7 831.284 816.434 834.593 816.965 836.799 817.851 840.502 820.329 843.495 823.693 845.15 825.021 845.78 826.437 846.174 827.942 846.331 829.447 846.489 830.863 846.41 832.368 846.016 835.998 845.15 839.007 842.629 840.689 839.241 841.663 837.114 841.929 833.884 842.548 828.37L844.938 804.421C845.558 798.985 845.912 795.676 845.292 793.392 844.407 789.768 841.929 786.695 838.565 785.041 837.237 784.411 835.821 784.017 834.316 783.859 833.607 783.781 832.811 783.781 832.103 783.859Z" fill="#FFFFFF" fill-rule="evenodd"/></g></svg>